<svg width="26" height="24" viewBox="0 0 26 24" fill="none" xmlns="http://www.w3.org/2000/svg">
<path d="M13 1.5C13.862 1.5 14.6886 1.81607 15.2981 2.37868C15.9076 2.94129 16.25 3.70435 16.25 4.5V10.5H9.75V4.5C9.75 3.70435 10.0924 2.94129 10.7019 2.37868C11.3114 1.81607 12.138 1.5 13 1.5V1.5ZM17.875 10.5V4.5C17.875 3.30653 17.3614 2.16193 16.4471 1.31802C15.5329 0.474106 14.2929 0 13 0C11.7071 0 10.4671 0.474106 9.55285 1.31802C8.63861 2.16193 8.125 3.30653 8.125 4.5V10.5C7.26305 10.5 6.4364 10.8161 5.8269 11.3787C5.21741 11.9413 4.875 12.7044 4.875 13.5V21C4.875 21.7956 5.21741 22.5587 5.8269 23.1213C6.4364 23.6839 7.26305 24 8.125 24H17.875C18.737 24 19.5636 23.6839 20.1731 23.1213C20.7826 22.5587 21.125 21.7956 21.125 21V13.5C21.125 12.7044 20.7826 11.9413 20.1731 11.3787C19.5636 10.8161 18.737 10.5 17.875 10.5V10.5ZM8.125 12H17.875C18.306 12 18.7193 12.158 19.024 12.4393C19.3288 12.7206 19.5 13.1022 19.5 13.5V21C19.5 21.3978 19.3288 21.7794 19.024 22.0607C18.7193 22.342 18.306 22.5 17.875 22.5H8.125C7.69402 22.5 7.2807 22.342 6.97595 22.0607C6.67121 21.7794 6.5 21.3978 6.5 21V13.5C6.5 13.1022 6.67121 12.7206 6.97595 12.4393C7.2807 12.158 7.69402 12 8.125 12Z" fill="black"/>
</svg>
